<?xml version="1.0" encoding="UTF-8" standalone="no"?>
<!-- Created with Inkscape (http://www.inkscape.org/) -->

<svg
   xmlns:dc="http://purl.org/dc/elements/1.1/"
   xmlns:cc="http://creativecommons.org/ns#"
   xmlns:rdf="http://www.w3.org/1999/02/22-rdf-syntax-ns#"
   xmlns:svg="http://www.w3.org/2000/svg"
   xmlns="http://www.w3.org/2000/svg"
   xmlns:xlink="http://www.w3.org/1999/xlink"
   xmlns:sodipodi="http://sodipodi.sourceforge.net/DTD/sodipodi-0.dtd"
   xmlns:inkscape="http://www.inkscape.org/namespaces/inkscape"
   width="1349.9995"
   height="670"
   id="svg2"
   version="1.1"
   inkscape:version="0.48.2 r9819"
   sodipodi:docname="DisplayDistortions.svg"
   inkscape:export-filename="C:\Users\jhincapie\Desktop\Projects\STColorCorrection\Docs\ISMAR 2013\DisplayDistortions.png"
   inkscape:export-xdpi="180"
   inkscape:export-ydpi="180">
  <defs
     id="defs4" />
  <sodipodi:namedview
     id="base"
     pagecolor="#ffffff"
     bordercolor="#666666"
     borderopacity="1.0"
     inkscape:pageopacity="0.0"
     inkscape:pageshadow="2"
     inkscape:zoom="0.7"
     inkscape:cx="621.90192"
     inkscape:cy="316.72366"
     inkscape:document-units="px"
     inkscape:current-layer="layer1"
     showgrid="false"
     fit-margin-top="0"
     fit-margin-left="0"
     fit-margin-right="0"
     fit-margin-bottom="0"
     inkscape:window-width="1920"
     inkscape:window-height="1018"
     inkscape:window-x="-8"
     inkscape:window-y="-8"
     inkscape:window-maximized="1" />
  <metadata
     id="metadata7">
    <rdf:RDF>
      <cc:Work
         rdf:about="">
        <dc:format>image/svg+xml</dc:format>
        <dc:type
           rdf:resource="http://purl.org/dc/dcmitype/StillImage" />
        <dc:title></dc:title>
      </cc:Work>
    </rdf:RDF>
  </metadata>
  <g
     inkscape:label="Layer 1"
     inkscape:groupmode="layer"
     id="layer1"
     transform="translate(712.9999,-133.93364)">
    <g
       id="g3895"
       transform="translate(731.42857,-288.57143)">
      <image
         width="670"
         height="670"
         xlink:href="file:///C:/Users/jhincapie/Desktop/Projects/STColorCorrection/Docs/ISMAR%202013/LAB.png"
         id="image3015"
         x="-1444.4285"
         y="422.50507" />
      <path
         transform="matrix(1.225,0,0,1.225,206.2143,-131.5315)"
         d="m -905.71429,588.07648 c 0,7.88978 -6.39593,14.28571 -14.28571,14.28571 -7.88978,0 -14.28571,-6.39593 -14.28571,-14.28571 0,-7.88979 6.39593,-14.28572 14.28571,-14.28572 7.88978,0 14.28571,6.39593 14.28571,14.28572 z"
         sodipodi:ry="14.285714"
         sodipodi:rx="14.285714"
         sodipodi:cy="588.07648"
         sodipodi:cx="-920"
         id="path3797"
         style="fill:#eb6944;fill-opacity:1;stroke:#000000;stroke-width:1.63265312;stroke-miterlimit:4;stroke-dasharray:none"
         sodipodi:type="arc" />
      <path
         transform="matrix(1.225,0,0,1.225,269,-175.17436)"
         d="m -905.71429,588.07648 c 0,7.88978 -6.39593,14.28571 -14.28571,14.28571 -7.88978,0 -14.28571,-6.39593 -14.28571,-14.28571 0,-7.88979 6.39593,-14.28572 14.28571,-14.28572 7.88978,0 14.28571,6.39593 14.28571,14.28572 z"
         sodipodi:ry="14.285714"
         sodipodi:rx="14.285714"
         sodipodi:cy="588.07648"
         sodipodi:cx="-920"
         id="path3797-6"
         style="fill:#e8502c;fill-opacity:1;stroke:#ffffff;stroke-width:1.63265312;stroke-miterlimit:4;stroke-dasharray:none"
         sodipodi:type="arc" />
      <path
         transform="matrix(1.225,0,0,1.225,139.85714,-152.88864)"
         d="m -905.71429,588.07648 c 0,7.88978 -6.39593,14.28571 -14.28571,14.28571 -7.88978,0 -14.28571,-6.39593 -14.28571,-14.28571 0,-7.88979 6.39593,-14.28572 14.28571,-14.28572 7.88978,0 14.28571,6.39593 14.28571,14.28572 z"
         sodipodi:ry="14.285714"
         sodipodi:rx="14.285714"
         sodipodi:cy="588.07648"
         sodipodi:cx="-920"
         id="path3797-1"
         style="fill:#e78033;fill-opacity:1;stroke:#000000;stroke-width:1.63265312;stroke-miterlimit:4;stroke-dasharray:none"
         sodipodi:type="arc" />
      <path
         transform="matrix(1.225,0,0,1.225,128.42857,-34.317216)"
         d="m -905.71429,588.07648 c 0,7.88978 -6.39593,14.28571 -14.28571,14.28571 -7.88978,0 -14.28571,-6.39593 -14.28571,-14.28571 0,-7.88979 6.39593,-14.28572 14.28571,-14.28572 7.88978,0 14.28571,6.39593 14.28571,14.28572 z"
         sodipodi:ry="14.285714"
         sodipodi:rx="14.285714"
         sodipodi:cy="588.07648"
         sodipodi:cx="-920"
         id="path3797-4"
         style="fill:#d98578;fill-opacity:1;stroke:#000000;stroke-width:1.63265312;stroke-miterlimit:4;stroke-dasharray:none"
         sodipodi:type="arc" />
    </g>
    <g
       id="g3902"
       transform="translate(-321.36873,-156.67653)">
      <image
         width="670"
         height="670"
         xlink:href="file:///C:/Users/jhincapie/Desktop/Projects/STColorCorrection/Docs/ISMAR%202013/LAB.png"
         id="image3015-2"
         x="288.36829"
         y="290.61017" />
      <path
         transform="matrix(1.2051559,0,0,0.86620578,-180.33549,-85.347678)"
         d="m 655.58898,749.31641 c 0,8.92627 -5.20099,16.16244 -11.61675,16.16244 -6.41576,0 -11.61676,-7.23617 -11.61676,-16.16244 0,-8.92627 5.201,-16.16245 11.61676,-16.16245 6.41576,0 11.61675,7.23618 11.61675,16.16245 z"
         sodipodi:ry="16.162441"
         sodipodi:rx="11.616755"
         sodipodi:cy="749.31641"
         sodipodi:cx="643.97223"
         id="path3856"
         style="fill:#9ca27d;fill-opacity:1;stroke:#ffffff;stroke-width:1.95748234;stroke-linecap:round;stroke-miterlimit:4;stroke-opacity:1;stroke-dasharray:none;stroke-dashoffset:0"
         sodipodi:type="arc" />
      <path
         transform="matrix(1.2051559,0,0,0.86620578,-192.4713,-81.320704)"
         d="m 655.58898,749.31641 c 0,8.92627 -5.20099,16.16244 -11.61675,16.16244 -6.41576,0 -11.61676,-7.23617 -11.61676,-16.16244 0,-8.92627 5.201,-16.16245 11.61676,-16.16245 6.41576,0 11.61675,7.23618 11.61675,16.16245 z"
         sodipodi:ry="16.162441"
         sodipodi:rx="11.616755"
         sodipodi:cy="749.31641"
         sodipodi:cx="643.97223"
         id="path3856-3"
         style="fill:#9ca27d;fill-opacity:1;stroke:#000000;stroke-width:1.95748234;stroke-linecap:round;stroke-miterlimit:4;stroke-opacity:1;stroke-dasharray:none;stroke-dashoffset:0"
         sodipodi:type="arc" />
      <path
         transform="matrix(1.2051559,0,0,0.86620578,-204.84567,-85.108776)"
         d="m 655.58898,749.31641 c 0,8.92627 -5.20099,16.16244 -11.61675,16.16244 -6.41576,0 -11.61676,-7.23617 -11.61676,-16.16244 0,-8.92627 5.201,-16.16245 11.61676,-16.16245 6.41576,0 11.61675,7.23618 11.61675,16.16245 z"
         sodipodi:ry="16.162441"
         sodipodi:rx="11.616755"
         sodipodi:cy="749.31641"
         sodipodi:cx="643.97223"
         id="path3856-2"
         style="fill:#8ea57d;fill-opacity:1;stroke:#000000;stroke-width:1.95748234;stroke-linecap:round;stroke-miterlimit:4;stroke-opacity:1;stroke-dasharray:none;stroke-dashoffset:0"
         sodipodi:type="arc" />
      <path
         transform="matrix(1.2051559,0,0,0.86620578,-210.14897,-91.674767)"
         d="m 655.58898,749.31641 c 0,8.92627 -5.20099,16.16244 -11.61675,16.16244 -6.41576,0 -11.61676,-7.23617 -11.61676,-16.16244 0,-8.92627 5.201,-16.16245 11.61676,-16.16245 6.41576,0 11.61675,7.23618 11.61675,16.16245 z"
         sodipodi:ry="16.162441"
         sodipodi:rx="11.616755"
         sodipodi:cy="749.31641"
         sodipodi:cx="643.97223"
         id="path3856-21"
         style="fill:#8aa578;fill-opacity:1;stroke:#000000;stroke-width:1.95748234;stroke-linecap:round;stroke-miterlimit:4;stroke-opacity:1;stroke-dasharray:none;stroke-dashoffset:0"
         sodipodi:type="arc" />
    </g>
  </g>
</svg>
