<?xml version="1.0" encoding="UTF-8" standalone="no"?>
<!-- Created with Inkscape (http://www.inkscape.org/) -->

<svg
   xmlns:dc="http://purl.org/dc/elements/1.1/"
   xmlns:cc="http://creativecommons.org/ns#"
   xmlns:rdf="http://www.w3.org/1999/02/22-rdf-syntax-ns#"
   xmlns:svg="http://www.w3.org/2000/svg"
   xmlns="http://www.w3.org/2000/svg"
   xmlns:xlink="http://www.w3.org/1999/xlink"
   xmlns:sodipodi="http://sodipodi.sourceforge.net/DTD/sodipodi-0.dtd"
   xmlns:inkscape="http://www.inkscape.org/namespaces/inkscape"
   width="950"
   height="670.85999"
   id="svg2"
   version="1.1"
   inkscape:version="0.48.2 r9819"
   sodipodi:docname="LCD BackgroundAccuracy.svg"
   inkscape:export-filename="C:\Users\jhincapie\Desktop\Projects\STColorCorrection\Docs\ISMAR 2013\LCD BackgroundAccuracy.png"
   inkscape:export-xdpi="180"
   inkscape:export-ydpi="180">
  <defs
     id="defs4" />
  <sodipodi:namedview
     id="base"
     pagecolor="#ffffff"
     bordercolor="#666666"
     borderopacity="1.0"
     inkscape:pageopacity="0.0"
     inkscape:pageshadow="2"
     inkscape:zoom="0.7"
     inkscape:cx="617.94497"
     inkscape:cy="402.09252"
     inkscape:document-units="px"
     inkscape:current-layer="layer1"
     showgrid="false"
     fit-margin-top="0"
     fit-margin-left="0"
     fit-margin-right="0"
     fit-margin-bottom="0"
     inkscape:window-width="1920"
     inkscape:window-height="1018"
     inkscape:window-x="-8"
     inkscape:window-y="-8"
     inkscape:window-maximized="1"
     showguides="true"
     inkscape:guide-bbox="true">
    <sodipodi:guide
       orientation="1,0"
       position="700,54.285714"
       id="guide2986" />
    <sodipodi:guide
       orientation="0,1"
       position="820,34.285714"
       id="guide2988" />
  </sodipodi:namedview>
  <metadata
     id="metadata7">
    <rdf:RDF>
      <cc:Work
         rdf:about="">
        <dc:format>image/svg+xml</dc:format>
        <dc:type
           rdf:resource="http://purl.org/dc/dcmitype/StillImage" />
        <dc:title />
      </cc:Work>
    </rdf:RDF>
  </metadata>
  <g
     inkscape:label="Layer 1"
     inkscape:groupmode="layer"
     id="layer1"
     transform="translate(-51.714298,-71.216439)">
    <image
       y="71.623428"
       x="51.714298"
       id="image3087"
       xlink:href="file:///C:/Users/jhincapie/Desktop/Projects/STColorCorrection/Docs/ISMAR%202013/BackgroundLAB.png"
       height="670.453"
       width="670.453" />
    <path
       sodipodi:type="arc"
       style="fill:#000000;fill-opacity:1;stroke:#000000;stroke-width:6.25727081;stroke-linecap:round;stroke-miterlimit:4;stroke-opacity:1;stroke-dasharray:none;stroke-dashoffset:0"
       id="path2984"
       sodipodi:cx="742.14288"
       sodipodi:cy="63.717129"
       sodipodi:rx="26.428572"
       sodipodi:ry="30"
       d="m 768.57146,63.717129 c 0,16.568542 -11.83248,30 -26.42858,30 -14.59609,0 -26.42857,-13.431458 -26.42857,-30 0,-16.568543 11.83248,-30 26.42857,-30 14.5961,0 26.42858,13.431457 26.42858,30 z"
       transform="matrix(0.34054054,0,0,0.3,498.98456,697.67557)" />
    <path
       sodipodi:type="arc"
       style="fill:#000000;fill-opacity:1;stroke:#000000;stroke-width:6.25727081;stroke-linecap:round;stroke-miterlimit:4;stroke-opacity:1;stroke-dasharray:none;stroke-dashoffset:0"
       id="path2984-2"
       sodipodi:cx="742.14288"
       sodipodi:cy="63.717129"
       sodipodi:rx="26.428572"
       sodipodi:ry="30"
       d="m 768.57146,63.717129 c 0,16.568542 -11.83248,30 -26.42858,30 -14.59609,0 -26.42857,-13.431458 -26.42857,-30 0,-16.568543 11.83248,-30 26.42857,-30 14.5961,0 26.42858,13.431457 26.42858,30 z"
       transform="matrix(0.34054054,0,0,0.3,498.98456,670.61345)" />
    <path
       sodipodi:type="arc"
       style="fill:#000000;fill-opacity:1;stroke:#000000;stroke-width:6.25727081;stroke-linecap:round;stroke-miterlimit:4;stroke-opacity:1;stroke-dasharray:none;stroke-dashoffset:0"
       id="path2984-21"
       sodipodi:cx="742.14288"
       sodipodi:cy="63.717129"
       sodipodi:rx="26.428572"
       sodipodi:ry="30"
       d="m 768.57146,63.717129 c 0,16.568542 -11.83248,30 -26.42858,30 -14.59609,0 -26.42857,-13.431458 -26.42857,-30 0,-16.568543 11.83248,-30 26.42857,-30 14.5961,0 26.42858,13.431457 26.42858,30 z"
       transform="matrix(0.34054054,0,0,0.3,498.98456,643.55134)" />
    <path
       sodipodi:type="arc"
       style="fill:#000000;fill-opacity:1;stroke:#000000;stroke-width:6.25727081;stroke-linecap:round;stroke-miterlimit:4;stroke-opacity:1;stroke-dasharray:none;stroke-dashoffset:0"
       id="path2984-6"
       sodipodi:cx="742.14288"
       sodipodi:cy="63.717129"
       sodipodi:rx="26.428572"
       sodipodi:ry="30"
       d="m 768.57146,63.717129 c 0,16.568542 -11.83248,30 -26.42858,30 -14.59609,0 -26.42857,-13.431458 -26.42857,-30 0,-16.568543 11.83248,-30 26.42857,-30 14.5961,0 26.42858,13.431457 26.42858,30 z"
       transform="matrix(0.34054054,0,0,0.3,498.98456,616.48922)" />
    <path
       sodipodi:type="arc"
       style="fill:#000000;fill-opacity:1;stroke:#000000;stroke-width:6.25727081;stroke-linecap:round;stroke-miterlimit:4;stroke-opacity:1;stroke-dasharray:none;stroke-dashoffset:0"
       id="path2984-8"
       sodipodi:cx="742.14288"
       sodipodi:cy="63.717129"
       sodipodi:rx="26.428572"
       sodipodi:ry="30"
       d="m 768.57146,63.717129 c 0,16.568542 -11.83248,30 -26.42858,30 -14.59609,0 -26.42857,-13.431458 -26.42857,-30 0,-16.568543 11.83248,-30 26.42857,-30 14.5961,0 26.42858,13.431457 26.42858,30 z"
       transform="matrix(0.34054054,0,0,0.3,498.98456,589.4271)" />
    <path
       sodipodi:type="arc"
       style="fill:#000000;fill-opacity:1;stroke:#000000;stroke-width:6.25727081;stroke-linecap:round;stroke-miterlimit:4;stroke-opacity:1;stroke-dasharray:none;stroke-dashoffset:0"
       id="path2984-5"
       sodipodi:cx="742.14288"
       sodipodi:cy="63.717129"
       sodipodi:rx="26.428572"
       sodipodi:ry="30"
       d="m 768.57146,63.717129 c 0,16.568542 -11.83248,30 -26.42858,30 -14.59609,0 -26.42857,-13.431458 -26.42857,-30 0,-16.568543 11.83248,-30 26.42857,-30 14.5961,0 26.42858,13.431457 26.42858,30 z"
       transform="matrix(0.34054054,0,0,0.3,498.98456,562.36499)" />
    <path
       sodipodi:type="arc"
       style="fill:#000000;fill-opacity:1;stroke:#000000;stroke-width:6.25727081;stroke-linecap:round;stroke-miterlimit:4;stroke-opacity:1;stroke-dasharray:none;stroke-dashoffset:0"
       id="path2984-7"
       sodipodi:cx="742.14288"
       sodipodi:cy="63.717129"
       sodipodi:rx="26.428572"
       sodipodi:ry="30"
       d="m 768.57146,63.717129 c 0,16.568542 -11.83248,30 -26.42858,30 -14.59609,0 -26.42857,-13.431458 -26.42857,-30 0,-16.568543 11.83248,-30 26.42857,-30 14.5961,0 26.42858,13.431457 26.42858,30 z"
       transform="matrix(0.34054054,0,0,0.3,498.98456,535.30287)" />
    <path
       sodipodi:type="arc"
       style="fill:#000000;fill-opacity:1;stroke:#000000;stroke-width:6.25727081;stroke-linecap:round;stroke-miterlimit:4;stroke-opacity:1;stroke-dasharray:none;stroke-dashoffset:0"
       id="path2984-61"
       sodipodi:cx="742.14288"
       sodipodi:cy="63.717129"
       sodipodi:rx="26.428572"
       sodipodi:ry="30"
       d="m 768.57146,63.717129 c 0,16.568542 -11.83248,30 -26.42858,30 -14.59609,0 -26.42857,-13.431458 -26.42857,-30 0,-16.568543 11.83248,-30 26.42857,-30 14.5961,0 26.42858,13.431457 26.42858,30 z"
       transform="matrix(0.34054054,0,0,0.3,498.98456,508.24075)" />
    <path
       sodipodi:type="arc"
       style="fill:#000000;fill-opacity:1;stroke:#000000;stroke-width:6.25727081;stroke-linecap:round;stroke-miterlimit:4;stroke-opacity:1;stroke-dasharray:none;stroke-dashoffset:0"
       id="path2984-89"
       sodipodi:cx="742.14288"
       sodipodi:cy="63.717129"
       sodipodi:rx="26.428572"
       sodipodi:ry="30"
       d="m 768.57146,63.717129 c 0,16.568542 -11.83248,30 -26.42858,30 -14.59609,0 -26.42857,-13.431458 -26.42857,-30 0,-16.568543 11.83248,-30 26.42857,-30 14.5961,0 26.42858,13.431457 26.42858,30 z"
       transform="matrix(0.34054054,0,0,0.3,498.98456,481.17864)" />
    <path
       sodipodi:type="arc"
       style="fill:#000000;fill-opacity:1;stroke:#000000;stroke-width:6.25727081;stroke-linecap:round;stroke-miterlimit:4;stroke-opacity:1;stroke-dasharray:none;stroke-dashoffset:0"
       id="path2984-27"
       sodipodi:cx="742.14288"
       sodipodi:cy="63.717129"
       sodipodi:rx="26.428572"
       sodipodi:ry="30"
       d="m 768.57146,63.717129 c 0,16.568542 -11.83248,30 -26.42858,30 -14.59609,0 -26.42857,-13.431458 -26.42857,-30 0,-16.568543 11.83248,-30 26.42857,-30 14.5961,0 26.42858,13.431457 26.42858,30 z"
       transform="matrix(0.34054054,0,0,0.3,498.98456,454.11652)" />
    <path
       sodipodi:type="arc"
       style="fill:#000000;fill-opacity:1;stroke:#000000;stroke-width:6.25727081;stroke-linecap:round;stroke-miterlimit:4;stroke-opacity:1;stroke-dasharray:none;stroke-dashoffset:0"
       id="path2984-9"
       sodipodi:cx="742.14288"
       sodipodi:cy="63.717129"
       sodipodi:rx="26.428572"
       sodipodi:ry="30"
       d="m 768.57146,63.717129 c 0,16.568542 -11.83248,30 -26.42858,30 -14.59609,0 -26.42857,-13.431458 -26.42857,-30 0,-16.568543 11.83248,-30 26.42857,-30 14.5961,0 26.42858,13.431457 26.42858,30 z"
       transform="matrix(0.34054054,0,0,0.3,498.98456,427.05441)" />
    <path
       sodipodi:type="arc"
       style="fill:#000000;fill-opacity:1;stroke:#000000;stroke-width:6.25727081;stroke-linecap:round;stroke-miterlimit:4;stroke-opacity:1;stroke-dasharray:none;stroke-dashoffset:0"
       id="path2984-54"
       sodipodi:cx="742.14288"
       sodipodi:cy="63.717129"
       sodipodi:rx="26.428572"
       sodipodi:ry="30"
       d="m 768.57146,63.717129 c 0,16.568542 -11.83248,30 -26.42858,30 -14.59609,0 -26.42857,-13.431458 -26.42857,-30 0,-16.568543 11.83248,-30 26.42857,-30 14.5961,0 26.42858,13.431457 26.42858,30 z"
       transform="matrix(0.34054054,0,0,0.3,498.98456,399.99231)" />
    <path
       sodipodi:type="arc"
       style="fill:#000000;fill-opacity:1;stroke:#000000;stroke-width:6.25727081;stroke-linecap:round;stroke-miterlimit:4;stroke-opacity:1;stroke-dasharray:none;stroke-dashoffset:0"
       id="path2984-3"
       sodipodi:cx="742.14288"
       sodipodi:cy="63.717129"
       sodipodi:rx="26.428572"
       sodipodi:ry="30"
       d="m 768.57146,63.717129 c 0,16.568542 -11.83248,30 -26.42858,30 -14.59609,0 -26.42857,-13.431458 -26.42857,-30 0,-16.568543 11.83248,-30 26.42857,-30 14.5961,0 26.42858,13.431457 26.42858,30 z"
       transform="matrix(0.34054054,0,0,0.3,498.98456,372.93021)" />
    <path
       sodipodi:type="arc"
       style="fill:#000000;fill-opacity:1;stroke:#000000;stroke-width:6.25727081;stroke-linecap:round;stroke-miterlimit:4;stroke-opacity:1;stroke-dasharray:none;stroke-dashoffset:0"
       id="path2984-1"
       sodipodi:cx="742.14288"
       sodipodi:cy="63.717129"
       sodipodi:rx="26.428572"
       sodipodi:ry="30"
       d="m 768.57146,63.717129 c 0,16.568542 -11.83248,30 -26.42858,30 -14.59609,0 -26.42857,-13.431458 -26.42857,-30 0,-16.568543 11.83248,-30 26.42857,-30 14.5961,0 26.42858,13.431457 26.42858,30 z"
       transform="matrix(0.34054054,0,0,0.3,498.98456,345.8681)" />
    <path
       sodipodi:type="arc"
       style="fill:#000000;fill-opacity:1;stroke:#000000;stroke-width:6.25727081;stroke-linecap:round;stroke-miterlimit:4;stroke-opacity:1;stroke-dasharray:none;stroke-dashoffset:0"
       id="path2984-23"
       sodipodi:cx="742.14288"
       sodipodi:cy="63.717129"
       sodipodi:rx="26.428572"
       sodipodi:ry="30"
       d="m 768.57146,63.717129 c 0,16.568542 -11.83248,30 -26.42858,30 -14.59609,0 -26.42857,-13.431458 -26.42857,-30 0,-16.568543 11.83248,-30 26.42857,-30 14.5961,0 26.42858,13.431457 26.42858,30 z"
       transform="matrix(0.34054054,0,0,0.3,498.98456,318.806)" />
    <path
       sodipodi:type="arc"
       style="fill:#000000;fill-opacity:1;stroke:#000000;stroke-width:6.25727081;stroke-linecap:round;stroke-miterlimit:4;stroke-opacity:1;stroke-dasharray:none;stroke-dashoffset:0"
       id="path2984-34"
       sodipodi:cx="742.14288"
       sodipodi:cy="63.717129"
       sodipodi:rx="26.428572"
       sodipodi:ry="30"
       d="m 768.57146,63.717129 c 0,16.568542 -11.83248,30 -26.42858,30 -14.59609,0 -26.42857,-13.431458 -26.42857,-30 0,-16.568543 11.83248,-30 26.42857,-30 14.5961,0 26.42858,13.431457 26.42858,30 z"
       transform="matrix(0.34054054,0,0,0.3,498.98456,291.7439)" />
    <path
       sodipodi:type="arc"
       style="fill:#000000;fill-opacity:1;stroke:#000000;stroke-width:6.25727081;stroke-linecap:round;stroke-miterlimit:4;stroke-opacity:1;stroke-dasharray:none;stroke-dashoffset:0"
       id="path2984-11"
       sodipodi:cx="742.14288"
       sodipodi:cy="63.717129"
       sodipodi:rx="26.428572"
       sodipodi:ry="30"
       d="m 768.57146,63.717129 c 0,16.568542 -11.83248,30 -26.42858,30 -14.59609,0 -26.42857,-13.431458 -26.42857,-30 0,-16.568543 11.83248,-30 26.42857,-30 14.5961,0 26.42858,13.431457 26.42858,30 z"
       transform="matrix(0.34054054,0,0,0.3,498.98456,264.68179)" />
    <path
       sodipodi:type="arc"
       style="fill:#000000;fill-opacity:1;stroke:#000000;stroke-width:6.25727081;stroke-linecap:round;stroke-miterlimit:4;stroke-opacity:1;stroke-dasharray:none;stroke-dashoffset:0"
       id="path2984-38"
       sodipodi:cx="742.14288"
       sodipodi:cy="63.717129"
       sodipodi:rx="26.428572"
       sodipodi:ry="30"
       d="m 768.57146,63.717129 c 0,16.568542 -11.83248,30 -26.42858,30 -14.59609,0 -26.42857,-13.431458 -26.42857,-30 0,-16.568543 11.83248,-30 26.42857,-30 14.5961,0 26.42858,13.431457 26.42858,30 z"
       transform="matrix(0.34054054,0,0,0.3,498.98456,237.61969)" />
    <path
       sodipodi:type="arc"
       style="fill:#000000;fill-opacity:1;stroke:#000000;stroke-width:6.25727081;stroke-linecap:round;stroke-miterlimit:4;stroke-opacity:1;stroke-dasharray:none;stroke-dashoffset:0"
       id="path2984-74"
       sodipodi:cx="742.14288"
       sodipodi:cy="63.717129"
       sodipodi:rx="26.428572"
       sodipodi:ry="30"
       d="m 768.57146,63.717129 c 0,16.568542 -11.83248,30 -26.42858,30 -14.59609,0 -26.42857,-13.431458 -26.42857,-30 0,-16.568543 11.83248,-30 26.42857,-30 14.5961,0 26.42858,13.431457 26.42858,30 z"
       transform="matrix(0.34054054,0,0,0.3,498.98456,210.55759)" />
    <path
       sodipodi:type="arc"
       style="fill:#000000;fill-opacity:1;stroke:#000000;stroke-width:6.25727081;stroke-linecap:round;stroke-miterlimit:4;stroke-opacity:1;stroke-dasharray:none;stroke-dashoffset:0"
       id="path2984-277"
       sodipodi:cx="742.14288"
       sodipodi:cy="63.717129"
       sodipodi:rx="26.428572"
       sodipodi:ry="30"
       d="m 768.57146,63.717129 c 0,16.568542 -11.83248,30 -26.42858,30 -14.59609,0 -26.42857,-13.431458 -26.42857,-30 0,-16.568543 11.83248,-30 26.42857,-30 14.5961,0 26.42858,13.431457 26.42858,30 z"
       transform="matrix(0.34054054,0,0,0.3,498.98456,183.49548)" />
    <path
       sodipodi:type="arc"
       style="fill:#000000;fill-opacity:1;stroke:#000000;stroke-width:6.25727081;stroke-linecap:round;stroke-miterlimit:4;stroke-opacity:1;stroke-dasharray:none;stroke-dashoffset:0"
       id="path2984-93"
       sodipodi:cx="742.14288"
       sodipodi:cy="63.717129"
       sodipodi:rx="26.428572"
       sodipodi:ry="30"
       d="m 768.57146,63.717129 c 0,16.568542 -11.83248,30 -26.42858,30 -14.59609,0 -26.42857,-13.431458 -26.42857,-30 0,-16.568543 11.83248,-30 26.42857,-30 14.5961,0 26.42858,13.431457 26.42858,30 z"
       transform="matrix(0.34054054,0,0,0.3,498.98456,156.43335)" />
    <path
       sodipodi:type="arc"
       style="fill:#000000;fill-opacity:1;stroke:#000000;stroke-width:6.25727081;stroke-linecap:round;stroke-miterlimit:4;stroke-opacity:1;stroke-dasharray:none;stroke-dashoffset:0"
       id="path2984-19"
       sodipodi:cx="742.14288"
       sodipodi:cy="63.717129"
       sodipodi:rx="26.428572"
       sodipodi:ry="30"
       d="m 768.57146,63.717129 c 0,16.568542 -11.83248,30 -26.42858,30 -14.59609,0 -26.42857,-13.431458 -26.42857,-30 0,-16.568543 11.83248,-30 26.42857,-30 14.5961,0 26.42858,13.431457 26.42858,30 z"
       transform="matrix(0.34054054,0,0,0.3,498.98456,129.37122)" />
    <path
       sodipodi:type="arc"
       style="fill:#000000;fill-opacity:1;stroke:#000000;stroke-width:6.25727081;stroke-linecap:round;stroke-miterlimit:4;stroke-opacity:1;stroke-dasharray:none;stroke-dashoffset:0"
       id="path2984-86"
       sodipodi:cx="742.14288"
       sodipodi:cy="63.717129"
       sodipodi:rx="26.428572"
       sodipodi:ry="30"
       d="m 768.57146,63.717129 c 0,16.568542 -11.83248,30 -26.42858,30 -14.59609,0 -26.42857,-13.431458 -26.42857,-30 0,-16.568543 11.83248,-30 26.42857,-30 14.5961,0 26.42858,13.431457 26.42858,30 z"
       transform="matrix(0.34054054,0,0,0.3,498.98456,102.30908)" />
    <path
       sodipodi:type="arc"
       style="fill:#000000;fill-opacity:1;stroke:#000000;stroke-width:6.25727081;stroke-linecap:round;stroke-miterlimit:4;stroke-opacity:1;stroke-dasharray:none;stroke-dashoffset:0"
       id="path2984-50"
       sodipodi:cx="742.14288"
       sodipodi:cy="63.717129"
       sodipodi:rx="26.428572"
       sodipodi:ry="30"
       d="m 768.57146,63.717129 c 0,16.568542 -11.83248,30 -26.42858,30 -14.59609,0 -26.42857,-13.431458 -26.42857,-30 0,-16.568543 11.83248,-30 26.42857,-30 14.5961,0 26.42858,13.431457 26.42858,30 z"
       transform="matrix(0.34054054,0,0,0.3,498.98456,75.246949)" />
    <text
       xml:space="preserve"
       style="font-size:24px;font-style:normal;font-weight:normal;line-height:125%;letter-spacing:0px;word-spacing:0px;fill:#000000;fill-opacity:1;stroke:none;font-family:Sans"
       x="780.51898"
       y="102.95193"
       id="text3250"
       sodipodi:linespacing="125%"><tspan
         sodipodi:role="line"
         id="tspan3252"
         x="780.51898"
         y="102.95193">Color X</tspan></text>
    <text
       xml:space="preserve"
       style="font-size:24px;font-style:normal;font-weight:normal;line-height:125%;letter-spacing:0px;word-spacing:0px;fill:#000000;fill-opacity:1;stroke:none;font-family:Sans"
       x="780.51898"
       y="130.01407"
       id="text3250-2"
       sodipodi:linespacing="125%"><tspan
         sodipodi:role="line"
         id="tspan3252-8"
         x="780.51898"
         y="130.01407">Color X</tspan></text>
    <text
       xml:space="preserve"
       style="font-size:24px;font-style:normal;font-weight:normal;line-height:125%;letter-spacing:0px;word-spacing:0px;fill:#000000;fill-opacity:1;stroke:none;font-family:Sans"
       x="780.51898"
       y="157.0762"
       id="text3250-6"
       sodipodi:linespacing="125%"><tspan
         sodipodi:role="line"
         id="tspan3252-0"
         x="780.51898"
         y="157.0762">Color X</tspan></text>
    <text
       xml:space="preserve"
       style="font-size:24px;font-style:normal;font-weight:normal;line-height:125%;letter-spacing:0px;word-spacing:0px;fill:#000000;fill-opacity:1;stroke:none;font-family:Sans"
       x="780.51898"
       y="184.13834"
       id="text3250-24"
       sodipodi:linespacing="125%"><tspan
         sodipodi:role="line"
         id="tspan3252-86"
         x="780.51898"
         y="184.13834">Color X</tspan></text>
    <text
       xml:space="preserve"
       style="font-size:24px;font-style:normal;font-weight:normal;line-height:125%;letter-spacing:0px;word-spacing:0px;fill:#000000;fill-opacity:1;stroke:none;font-family:Sans"
       x="780.51898"
       y="211.20047"
       id="text3250-5"
       sodipodi:linespacing="125%"><tspan
         sodipodi:role="line"
         id="tspan3252-09"
         x="780.51898"
         y="211.20047">Color X</tspan></text>
    <text
       xml:space="preserve"
       style="font-size:24px;font-style:normal;font-weight:normal;line-height:125%;letter-spacing:0px;word-spacing:0px;fill:#000000;fill-opacity:1;stroke:none;font-family:Sans"
       x="780.51898"
       y="238.26257"
       id="text3250-0"
       sodipodi:linespacing="125%"><tspan
         sodipodi:role="line"
         id="tspan3252-06"
         x="780.51898"
         y="238.26257">Color X</tspan></text>
    <text
       xml:space="preserve"
       style="font-size:24px;font-style:normal;font-weight:normal;line-height:125%;letter-spacing:0px;word-spacing:0px;fill:#000000;fill-opacity:1;stroke:none;font-family:Sans"
       x="780.51898"
       y="265.32468"
       id="text3250-1"
       sodipodi:linespacing="125%"><tspan
         sodipodi:role="line"
         id="tspan3252-3"
         x="780.51898"
         y="265.32468">Color X</tspan></text>
    <text
       xml:space="preserve"
       style="font-size:24px;font-style:normal;font-weight:normal;line-height:125%;letter-spacing:0px;word-spacing:0px;fill:#000000;fill-opacity:1;stroke:none;font-family:Sans"
       x="780.51898"
       y="292.38678"
       id="text3250-8"
       sodipodi:linespacing="125%"><tspan
         sodipodi:role="line"
         id="tspan3252-9"
         x="780.51898"
         y="292.38678">Color X</tspan></text>
    <text
       xml:space="preserve"
       style="font-size:24px;font-style:normal;font-weight:normal;line-height:125%;letter-spacing:0px;word-spacing:0px;fill:#000000;fill-opacity:1;stroke:none;font-family:Sans"
       x="780.51898"
       y="319.44888"
       id="text3250-3"
       sodipodi:linespacing="125%"><tspan
         sodipodi:role="line"
         id="tspan3252-4"
         x="780.51898"
         y="319.44888">Color X</tspan></text>
    <text
       xml:space="preserve"
       style="font-size:24px;font-style:normal;font-weight:normal;line-height:125%;letter-spacing:0px;word-spacing:0px;fill:#000000;fill-opacity:1;stroke:none;font-family:Sans"
       x="780.51898"
       y="346.51099"
       id="text3250-4"
       sodipodi:linespacing="125%"><tspan
         sodipodi:role="line"
         id="tspan3252-6"
         x="780.51898"
         y="346.51099">Color X</tspan></text>
    <text
       xml:space="preserve"
       style="font-size:24px;font-style:normal;font-weight:normal;line-height:125%;letter-spacing:0px;word-spacing:0px;fill:#000000;fill-opacity:1;stroke:none;font-family:Sans"
       x="780.51898"
       y="373.57309"
       id="text3250-06"
       sodipodi:linespacing="125%"><tspan
         sodipodi:role="line"
         id="tspan3252-61"
         x="780.51898"
         y="373.57309">Color X</tspan></text>
    <text
       xml:space="preserve"
       style="font-size:24px;font-style:normal;font-weight:normal;line-height:125%;letter-spacing:0px;word-spacing:0px;fill:#000000;fill-opacity:1;stroke:none;font-family:Sans"
       x="780.51898"
       y="400.63519"
       id="text3250-84"
       sodipodi:linespacing="125%"><tspan
         sodipodi:role="line"
         id="tspan3252-96"
         x="780.51898"
         y="400.63519">Color X</tspan></text>
    <text
       xml:space="preserve"
       style="font-size:24px;font-style:normal;font-weight:normal;line-height:125%;letter-spacing:0px;word-spacing:0px;fill:#000000;fill-opacity:1;stroke:none;font-family:Sans"
       x="780.51898"
       y="427.6973"
       id="text3250-37"
       sodipodi:linespacing="125%"><tspan
         sodipodi:role="line"
         id="tspan3252-88"
         x="780.51898"
         y="427.6973">Color X</tspan></text>
    <text
       xml:space="preserve"
       style="font-size:24px;font-style:normal;font-weight:normal;line-height:125%;letter-spacing:0px;word-spacing:0px;fill:#000000;fill-opacity:1;stroke:none;font-family:Sans"
       x="780.51898"
       y="454.7594"
       id="text3250-29"
       sodipodi:linespacing="125%"><tspan
         sodipodi:role="line"
         id="tspan3252-1"
         x="780.51898"
         y="454.7594">Color X</tspan></text>
    <text
       xml:space="preserve"
       style="font-size:24px;font-style:normal;font-weight:normal;line-height:125%;letter-spacing:0px;word-spacing:0px;fill:#000000;fill-opacity:1;stroke:none;font-family:Sans"
       x="780.51898"
       y="481.8215"
       id="text3250-35"
       sodipodi:linespacing="125%"><tspan
         sodipodi:role="line"
         id="tspan3252-98"
         x="780.51898"
         y="481.8215">Color X</tspan></text>
    <text
       xml:space="preserve"
       style="font-size:24px;font-style:normal;font-weight:normal;line-height:125%;letter-spacing:0px;word-spacing:0px;fill:#000000;fill-opacity:1;stroke:none;font-family:Sans"
       x="780.51898"
       y="508.88361"
       id="text3250-40"
       sodipodi:linespacing="125%"><tspan
         sodipodi:role="line"
         id="tspan3252-7"
         x="780.51898"
         y="508.88361">Color X</tspan></text>
    <text
       xml:space="preserve"
       style="font-size:24px;font-style:normal;font-weight:normal;line-height:125%;letter-spacing:0px;word-spacing:0px;fill:#000000;fill-opacity:1;stroke:none;font-family:Sans"
       x="780.51898"
       y="535.94574"
       id="text3250-63"
       sodipodi:linespacing="125%"><tspan
         sodipodi:role="line"
         id="tspan3252-615"
         x="780.51898"
         y="535.94574">Color X</tspan></text>
    <text
       xml:space="preserve"
       style="font-size:24px;font-style:normal;font-weight:normal;line-height:125%;letter-spacing:0px;word-spacing:0px;fill:#000000;fill-opacity:1;stroke:none;font-family:Sans"
       x="780.51898"
       y="563.00787"
       id="text3250-42"
       sodipodi:linespacing="125%"><tspan
         sodipodi:role="line"
         id="tspan3252-097"
         x="780.51898"
         y="563.00787">Color X</tspan></text>
    <text
       xml:space="preserve"
       style="font-size:24px;font-style:normal;font-weight:normal;line-height:125%;letter-spacing:0px;word-spacing:0px;fill:#000000;fill-opacity:1;stroke:none;font-family:Sans"
       x="780.51898"
       y="590.06995"
       id="text3250-372"
       sodipodi:linespacing="125%"><tspan
         sodipodi:role="line"
         id="tspan3252-60"
         x="780.51898"
         y="590.06995">Color X</tspan></text>
    <text
       xml:space="preserve"
       style="font-size:24px;font-style:normal;font-weight:normal;line-height:125%;letter-spacing:0px;word-spacing:0px;fill:#000000;fill-opacity:1;stroke:none;font-family:Sans"
       x="780.51898"
       y="617.13208"
       id="text3250-16"
       sodipodi:linespacing="125%"><tspan
         sodipodi:role="line"
         id="tspan3252-5"
         x="780.51898"
         y="617.13208">Color X</tspan></text>
    <text
       xml:space="preserve"
       style="font-size:24px;font-style:normal;font-weight:normal;line-height:125%;letter-spacing:0px;word-spacing:0px;fill:#000000;fill-opacity:1;stroke:none;font-family:Sans"
       x="780.51898"
       y="644.19421"
       id="text3250-7"
       sodipodi:linespacing="125%"><tspan
         sodipodi:role="line"
         id="tspan3252-54"
         x="780.51898"
         y="644.19421">Color X</tspan></text>
    <text
       xml:space="preserve"
       style="font-size:24px;font-style:normal;font-weight:normal;line-height:125%;letter-spacing:0px;word-spacing:0px;fill:#000000;fill-opacity:1;stroke:none;font-family:Sans"
       x="780.51898"
       y="671.25635"
       id="text3250-12"
       sodipodi:linespacing="125%"><tspan
         sodipodi:role="line"
         id="tspan3252-00"
         x="780.51898"
         y="671.25635">Color X</tspan></text>
    <text
       xml:space="preserve"
       style="font-size:24px;font-style:normal;font-weight:normal;line-height:125%;letter-spacing:0px;word-spacing:0px;fill:#000000;fill-opacity:1;stroke:none;font-family:Sans"
       x="780.51898"
       y="698.31842"
       id="text3250-14"
       sodipodi:linespacing="125%"><tspan
         sodipodi:role="line"
         id="tspan3252-607"
         x="780.51898"
         y="698.31842">Color X</tspan></text>
    <text
       xml:space="preserve"
       style="font-size:24px;font-style:normal;font-weight:normal;line-height:125%;letter-spacing:0px;word-spacing:0px;fill:#000000;fill-opacity:1;stroke:none;font-family:Sans"
       x="780.51898"
       y="725.38055"
       id="text3250-17"
       sodipodi:linespacing="125%"><tspan
         sodipodi:role="line"
         id="tspan3252-77"
         x="780.51898"
         y="725.38055">Color X</tspan></text>
    <image
       y="71.62339"
       x="51.714298"
       id="image3065"
       xlink:href="file:///C:/Users/jhincapie/Desktop/Projects/STColorCorrection/Docs/ISMAR%202013/BackgroundLAB-NoBg-2.png"
       height="670.453"
       width="670.453" />
    <image
       y="71.62339"
       x="51.714298"
       id="image3076"
       xlink:href="file:///C:/Users/jhincapie/Desktop/Projects/STColorCorrection/Docs/ISMAR%202013/BackgroundLAB-NoBg.png"
       height="670.453"
       width="670.453" />
  </g>
</svg>
